<?xml version="1.0" encoding="UTF-8"?>
<svg id="Layer_2" xmlns="http://www.w3.org/2000/svg" viewBox="0 0 357.25 367.02">
  <defs>
    <style>
      .cls-1 {
        fill: #64c0ff;
      }

      .cls-2 {
        fill: #fff;
      }

      .cls-3 {
        fill: #3998ff;
      }

      .cls-4 {
        fill: #3265cc;
      }

      .cls-5 {
        fill: #c3ced8;
      }
    </style>
  </defs>
  <g id="Objects">
    <g>
      <g>
        <path class="cls-5" d="M357.25,188.39c0,98.49-80.13,178.62-178.62,178.62S0,286.89,0,188.39v-9.77h357.25v9.77Z"/>
        <path class="cls-2" d="M178.62,357.25C80.13,357.25,0,277.12,0,178.62S80.13,0,178.62,0s178.62,80.13,178.62,178.62-80.13,178.62-178.62,178.62Z"/>
        <path class="cls-4" d="M178.62,327.25c-86.36,0-156.62-70.26-156.62-156.62S92.26,14,178.62,14s156.62,70.26,156.62,156.62-70.26,156.62-156.62,156.62Z"/>
        <path class="cls-3" d="M178.62,301.97c-77.89,0-141.26-63.37-141.26-141.26S100.73,19.46,178.62,19.46s141.26,63.37,141.26,141.26-63.37,141.26-141.26,141.26Z"/>
        <path class="cls-1" d="M146.76,46.37c9.34,16.65-12.4,22-36.62,46.23-24.22,24.22-38.37,49.35-49.7,38.02-11.33-11.33-.87-40.15,23.35-64.37,24.22-24.22,56.17-31.99,62.97-19.88Z"/>
        <path class="cls-1" d="M177.56,51.32c-9.82,1.13-17.81,1.77-18.75-6.43-.94-8.19,6.27-15.74,16.09-16.87,9.82-1.11,18.54,4.61,19.47,12.8.94,8.2-7,9.37-16.81,10.49Z"/>
      </g>
      <path class="cls-2" d="M241.08,112.24v106.76c0,7.63-6.19,13.83-13.83,13.83s-13.83-6.19-13.83-13.83v-38.33l-69.7,48.95c-11.6,8.15-27.56-.15-27.56-14.33v-99.35c0-14.17,15.96-22.47,27.56-14.33l69.7,48.95v-38.33c0-7.63,6.19-13.83,13.83-13.83,3.81,0,7.27,1.55,9.78,4.05,2.5,2.51,4.05,5.97,4.05,9.78Z"/>
    </g>
  </g>
</svg>