<?xml version="1.0" encoding="UTF-8"?>
<svg id="Layer_2" xmlns="http://www.w3.org/2000/svg" viewBox="0 0 357.25 367.02">
  <defs>
    <style>
      .cls-1 {
        fill: #64c0ff;
      }

      .cls-2 {
        fill: #fff;
      }

      .cls-3 {
        fill: #3998ff;
      }

      .cls-4 {
        fill: #3265cc;
      }

      .cls-5 {
        fill: #c3ced8;
      }
    </style>
  </defs>
  <g id="Objects">
    <g>
      <path class="cls-5" d="M357.25,188.39c0,98.49-80.13,178.62-178.62,178.62S0,286.89,0,188.39v-9.77h357.25v9.77Z"/>
      <path class="cls-2" d="M178.62,357.25C80.13,357.25,0,277.12,0,178.62S80.13,0,178.62,0s178.62,80.13,178.62,178.62-80.13,178.62-178.62,178.62Z"/>
      <path class="cls-4" d="M178.62,327.25c-86.36,0-156.62-70.26-156.62-156.62S92.26,14,178.62,14s156.62,70.26,156.62,156.62-70.26,156.62-156.62,156.62Z"/>
      <path class="cls-3" d="M178.62,301.97c-77.89,0-141.26-63.37-141.26-141.26S100.73,19.46,178.62,19.46s141.26,63.37,141.26,141.26-63.37,141.26-141.26,141.26Z"/>
      <path class="cls-1" d="M146.76,46.37c9.34,16.65-12.4,22-36.62,46.23-24.22,24.22-38.37,49.35-49.7,38.02-11.33-11.33-.87-40.15,23.35-64.37,24.22-24.22,56.17-31.99,62.97-19.88Z"/>
      <path class="cls-1" d="M177.56,51.32c-9.82,1.13-17.81,1.77-18.75-6.43-.94-8.19,6.27-15.74,16.09-16.87,9.82-1.11,18.54,4.61,19.47,12.8.94,8.2-7,9.37-16.81,10.49Z"/>
    </g>
    <g>
      <path class="cls-2" d="M278.35,110.25h-39.48c-1.9,0-3.43-1.54-3.43-3.43s1.54-3.43,3.43-3.43h39.48c1.9,0,3.43,1.54,3.43,3.43s-1.54,3.43-3.43,3.43Z"/>
      <path class="cls-2" d="M258.61,129.99c-1.9,0-3.43-1.54-3.43-3.43v-39.48c0-1.9,1.54-3.43,3.43-3.43s3.43,1.54,3.43,3.43v39.48c0,1.9-1.54,3.43-3.43,3.43Z"/>
    </g>
    <g>
      <path class="cls-2" d="M171.33,87.31c-7.44.76-9.04,1.03-14.2,2.57-7.79,2.33-14.96,5.95-21.45,10.85-3.33,2.49-9.23,8.55-11.99,12.26-6.41,8.66-9.79,16.58-11.77,27.6-.73,4.09-1,12.34-.51,16.42,1.79,15.42,8.52,29.11,19.51,39.58,8.31,7.93,19.89,14.01,30.84,16.21,5.3,1.06,8.52,1.33,13.64,1.16,3.9-.14,9.74-.78,10.06-1.08.08-.11-1.41-4.09-5.06-13.58-.92-2.38-1.89-4.95-2.19-5.71l-.51-1.38-4.68-.16c-5.09-.16-7.17-.51-11.55-1.98-6.06-2.03-11.04-5.11-15.69-9.82-6.28-6.28-9.66-12.55-11.66-21.67-.84-3.79-.92-11.15-.14-15.29,2.41-13.04,10.42-23.78,22-29.6,11.8-5.9,25.27-5.76,37.5.43,3.11,1.57,7.12,4.57,10.36,7.79,6.98,6.95,10.8,15.07,11.74,25.03.38,3.92.22,7.36-.57,11.23-1.87,9.23-5.49,15.75-12.61,22.62-2.71,2.6-7.09,5.9-8.44,6.33q-.54.16.08,1.84c.35.92,1.7,4.41,2.98,7.76,2.68,6.93,4.25,10.82,4.41,10.82.24,0,4.06-2,6.22-3.3,10.55-6.22,20.18-16.91,24.86-27.6,2.43-5.6,4.09-11.44,5.01-17.75.51-3.46.57-4.76.43-10.06-.11-5.14-.24-6.6-.84-9.36-2.89-13.64-8.52-24.19-17.88-33.52-4.92-4.92-10.34-8.68-17.32-12.07-8.79-4.25-16.86-6.3-25.7-6.57-2.08-.05-4.27-.05-4.87,0Z"/>
      <path class="cls-2" d="M167.79,118.51c-6.84,1.22-11.99,3.9-16.83,8.74-4.49,4.52-7.25,9.5-8.58,15.48-.57,2.65-.43,4.19.51,5.44,2.06,2.71,6.3,1.3,6.79-2.22.92-6.76,4.87-12.99,10.66-16.72,3.11-2.03,6.11-3.06,10.47-3.68,2.43-.32,3.27-.7,4.27-1.87,1.87-2.22-.3-5.74-3.49-5.65-.6,0-2.3.24-3.81.49Z"/>
      <path class="cls-2" d="M207.43,218.31c-2.62,1-8.58,3.22-13.2,4.92s-8.41,3.25-8.41,3.44c0,.16,1.06,2.98,2.33,6.22,2.52,6.39,8.22,21.4,9.42,24.76,1.3,3.63,4.06,7.01,6.95,8.47,6.11,3.14,12.74,2.25,17.32-2.33,3.19-3.17,4.57-7.14,4.03-11.47-.24-1.89-.87-3.71-4.27-12.58-.89-2.3-2.41-6.28-3.41-8.79-4.84-12.61-5.52-14.31-5.74-14.37-.14-.03-2.38.76-5.01,1.73Z"/>
    </g>
  </g>
</svg>